<?xml version="1.0" encoding="UTF-8"?>
<!-- Created with Inkscape (http://www.inkscape.org/) -->
<svg width="512" height="512" version="1.1" viewBox="0 0 512 512" xmlns="http://www.w3.org/2000/svg">
 <path d="m448 112v352c0 26.51-21.49 48-48 48h-288c-26.51 0-48-21.49-48-48v-352c0-26.51 21.49-48 48-48h80c0-35.29 28.71-64 64-64s64 28.71 64 64h80c26.51 0 48 21.49 48 48zm-192-72c-13.255 0-24 10.745-24 24s10.745 24 24 24 24-10.745 24-24-10.745-24-24-24m96 114v-20a6 6 0 0 0-6-6h-180a6 6 0 0 0-6 6v20a6 6 0 0 0 6 6h180a6 6 0 0 0 6-6z" fill="#3498db"/>
 <path d="m346.07 253.86-27.341 128.94c-2.0627 9.1002-7.442 11.365-15.086 7.078l-41.659-30.698-20.101 19.333c-2.2245 2.2245-4.085 4.085-8.3722 4.085l2.993-42.427 77.21-69.769c3.357-2.993-0.72802-4.6512-5.2175-1.6583l-95.451 60.102-41.093-12.862c-8.9384-2.7907-9.1002-8.9385 1.8605-13.226l160.73-61.922c7.442-2.7907 13.954 1.6583 11.527 13.023z" fill="#fff" stroke-width=".40446"/>
</svg>
